Red Hot Chili Peppers
Date: 2006-11-20
City: London
Country: England
Venue: Abbey Road Studios
Line-Up: Anthony Kiedis, John Frusciante, Michael "Flea" Balzary, Chad Smith

Tracklist

Interview (John F. & Flea)
Dani California
Interview (John F. & Flea)
Desecration Smile
Interview & Part of "Hey Joe"
Snow ((Hey Oh))

Notes:	Most of this studio perfomance was aired on TV, 'C'mon Girl' was left out. 

-------------------------------
Please Don't Sell
-------------------------------

Video Info:

Format                                   : MPEG-TS
File size                                : 1.60 GiB
Duration                                 : 18mn 48s
Overall bit rate                         : 12.2 Mbps

Video
ID                                       : 1984 (0x7C0)
Menu ID                                  : 1 (0x1)
Format                                   : MPEG Video
Format version                           : Version 2
Format profile                           : Main@High
Format settings, BVOP                    : Yes
Format settings, Matrix                  : Custom
Codec ID                                 : 2
Duration                                 : 18mn 48s
Bit rate mode                            : Variable
Bit rate                                 : 11.2 Mbps
Maximum bit rate                         : 38.8 Mbps
Width                                    : 1 920 pixels
Height                                   : 1 080 pixels
Display aspect ratio                     : 16:9
Frame rate                               : 29.970 fps
Standard                                 : Component
Color space                              : YUV
Chroma subsampling                       : 4:2:0
Bit depth                                : 8 bits
Scan type                                : Interlaced
Scan order                               : Top Field First
Compression mode                         : Lossy
Bits/(Pixel*Frame)                       : 0.180
Stream size                              : 1.47 GiB (92%)

Audio
ID                                       : 1985 (0x7C1)
Menu ID                                  : 1 (0x1)
Format                                   : AC-3
Format/Info                              : Audio Coding 3
Mode extension                           : CM (complete main)
Codec ID                                 : 129
Duration                                 : 18mn 48s
Bit rate mode                            : Constant
Bit rate                                 : 384 Kbps
Channel(s)                               : 6 channels
Channel positions                        : Front: L C R, Side: L R, LFE
Sampling rate                            : 48.0 KHz
Bit depth                                : 16 bits
Compression mode                         : Lossy
Stream size                              : 51.7 MiB (3%)


MD5 Checksum

b34cb543966f3171ec4dd616dbec3e5e *Red Hot Chili Peppers - 2006-11-20, London, England, Abbey Roads Studios (1080i).ts